<svg width="434" height="434" viewBox="0 0 434 434" fill="none" xmlns="http://www.w3.org/2000/svg">
<path d="M217 305.888C266.092 305.888 305.889 266.09 305.889 216.999C305.889 167.907 266.092 128.11 217 128.11C167.908 128.11 128.112 167.907 128.112 216.999C128.112 266.09 167.908 305.888 217 305.888Z" stroke="#302F4D" stroke-width="33.3333" stroke-linecap="round" stroke-linejoin="round"/>
<path d="M17 305.889V128.111C17 66.7462 66.7462 17 128.111 17H305.889C367.253 17 417 66.7462 417 128.111V305.889C417 367.253 367.253 417 305.889 417H128.111C66.7462 417 17 367.253 17 305.889Z" stroke="#302F4D" stroke-width="33.3333"/>
<path d="M339.222 95.0074L339.452 94.7517" stroke="#302F4D" stroke-width="33.3333" stroke-linecap="round" stroke-linejoin="round"/>
</svg>
