<?xml version="1.0" standalone="no"?>
<!DOCTYPE svg PUBLIC "-//W3C//DTD SVG 20010904//EN"
 "http://www.w3.org/TR/2001/REC-SVG-20010904/DTD/svg10.dtd">
<svg version="1.0" xmlns="http://www.w3.org/2000/svg"
 width="1619.000000pt" height="845.000000pt" viewBox="0 0 1619.000000 845.000000"
 preserveAspectRatio="xMidYMid meet">

<g transform="translate(0.000000,845.000000) scale(0.100000,-0.100000)"
fill="#000000" stroke="none">
<path d="M11999 7937 c-15 -8 -31 -33 -46 -72 -12 -33 -119 -321 -237 -640
-118 -319 -229 -617 -246 -662 l-31 -82 -52 -5 c-29 -3 -214 -13 -412 -21
-351 -15 -731 -36 -1005 -55 -213 -15 -187 -24 -255 83 -129 201 -336 370
-515 421 -81 23 -254 39 -340 31 -126 -10 -370 -53 -465 -80 -128 -37 -388
-143 -480 -196 -96 -55 -180 -133 -190 -177 -11 -52 20 -101 83 -136 108 -57
119 -59 597 -63 369 -4 493 -1 770 16 182 12 376 24 433 27 l102 7 65 -137
c58 -121 73 -164 129 -389 42 -165 73 -317 90 -437 34 -240 56 -433 56 -492
l0 -48 -324 0 c-274 0 -325 -2 -336 -15 -16 -19 -5 -61 17 -67 10 -2 117 3
238 13 121 9 263 19 316 22 l96 6 7 -77 c10 -124 20 -851 12 -924 l-8 -68
-396 0 c-218 0 -1188 -5 -2154 -12 -967 -6 -1760 -9 -1763 -6 -6 6 275 954
541 1823 l24 80 73 50 c209 143 419 338 573 529 123 152 251 389 309 567 58
180 47 333 -31 413 -39 40 -81 52 -154 43 -62 -8 -101 -28 -163 -86 -64 -60
-108 -125 -195 -291 -161 -306 -240 -494 -353 -830 l-109 -325 -60 -36 c-116
-71 -445 -199 -670 -262 -398 -112 -940 -179 -1445 -181 -176 0 -216 3 -249
17 -38 17 -56 15 -56 -4 0 -22 79 -42 205 -50 71 -4 195 -13 275 -20 329 -26
874 28 1245 126 176 46 559 191 663 252 24 13 45 23 47 21 3 -4 -56 -200 -342
-1149 l-207 -686 -389 -6 c-215 -4 -594 -7 -844 -7 l-454 0 -86 81 c-96 91
-245 193 -355 243 -94 44 -368 138 -527 182 -253 69 -577 100 -979 91 -499
-11 -809 -63 -1139 -192 -149 -59 -229 -103 -294 -163 -47 -43 -52 -52 -57
-100 -4 -45 -1 -56 18 -77 13 -14 37 -29 54 -35 41 -13 274 -47 411 -59 322
-29 1234 -51 2142 -51 l763 0 70 -82 c192 -228 303 -424 424 -750 134 -358
197 -654 241 -1127 17 -190 19 -420 5 -818 -7 -185 -7 -290 0 -307 21 -55 89
-57 124 -4 14 21 69 206 195 653 28 100 172 590 322 1090 149 501 301 1010
337 1131 l66 222 550 6 c875 11 2849 26 3344 26 l454 0 -7 -65 -7 -65 50 0
c49 0 49 0 56 38 3 20 6 49 6 65 l0 27 140 0 c77 0 140 -3 140 -7 0 -5 -7 -30
-15 -57 -20 -66 -20 -66 24 -66 l40 0 17 60 c9 33 22 64 28 68 25 15 3038 -8
3661 -28 382 -13 745 -36 906 -58 70 -10 132 -16 138 -14 20 7 12 41 -11 46
-121 26 -696 70 -1313 101 -331 17 -1687 34 -2742 35 -337 0 -613 3 -613 7 0
8 245 768 308 953 l39 115 159 7 c175 7 1673 -15 2207 -33 348 -11 367 -10
367 27 0 41 -12 41 -830 50 -432 5 -1032 8 -1333 8 l-549 -1 7 25 c9 38 211
614 331 947 139 383 214 577 228 592 7 7 170 18 506 32 272 12 693 33 935 46
602 34 1362 72 1705 86 157 6 291 16 298 22 35 28 -3 83 -50 72 -46 -10 -1024
-70 -1898 -115 -322 -17 -926 -53 -1397 -85 l-83 -5 17 42 c18 46 60 152 353
882 158 394 191 484 184 504 -11 31 -44 44 -75 29z m-4824 -863 c27 -29 41
-109 31 -181 -17 -123 -144 -416 -252 -580 -66 -100 -201 -254 -307 -351 -96
-88 -276 -226 -284 -218 -2 2 33 109 77 237 64 185 106 284 200 474 135 274
247 468 314 542 48 53 132 103 173 103 13 0 35 -12 48 -26z m1928 -265 c145
-20 273 -87 398 -206 71 -68 179 -207 168 -217 -18 -16 -1050 -49 -1414 -44
-276 3 -293 5 -349 27 -32 13 -72 35 -88 50 -29 25 -30 29 -17 53 37 70 165
140 384 212 214 70 346 101 510 120 215 26 257 26 408 5z m2283 -471 c-19 -51
-69 -183 -111 -293 -113 -295 -179 -482 -304 -856 l-112 -336 -172 -7 c-95 -3
-253 -9 -352 -13 l-180 -6 -23 209 c-29 272 -56 454 -87 584 -55 227 -129 467
-181 583 -30 66 -54 123 -54 127 0 3 118 12 263 19 249 11 684 38 1087 66 102
7 202 13 222 14 l38 1 -34 -92z m-546 -1536 c0 -7 -143 -435 -304 -912 l-53
-155 -156 -3 -157 -3 6 153 c4 84 1 321 -5 527 -7 205 -9 376 -6 380 16 15
675 28 675 13z m-8190 -656 c168 -19 262 -37 403 -77 176 -50 420 -135 499
-175 74 -36 207 -123 263 -169 l30 -25 -1275 0 c-745 0 -1333 5 -1415 10 -169
12 -479 56 -514 73 -37 18 -37 41 3 84 45 51 106 83 240 127 258 86 535 139
881 166 168 13 727 4 885 -14z m2995 -543 c-3 -10 -51 -169 -107 -353 -380
-1274 -708 -2350 -763 -2505 -2 -5 -4 135 -4 312 -2 907 -105 1464 -375 2028
-70 145 -112 213 -245 395 l-91 125 662 5 c365 3 723 6 797 8 123 2 133 1 126
-15z"/>
<path d="M7320 4724 c-44 -40 -172 -209 -250 -331 l-50 -78 -77 0 c-97 -1
-157 -29 -238 -111 -99 -101 -140 -231 -96 -302 51 -81 147 -66 243 36 l47 50
7 -41 c12 -73 95 -132 132 -95 19 19 14 34 -19 68 -30 29 -31 35 -26 84 13
124 143 349 366 632 34 42 61 83 61 90 0 13 -30 34 -49 34 -6 0 -29 -16 -51
-36z m-346 -482 c8 -13 -106 -184 -160 -240 -143 -147 -187 2 -48 157 24 27
63 58 86 70 43 21 112 28 122 13z"/>
<path d="M8583 4583 c-46 -29 -69 -63 -60 -88 16 -39 70 -30 127 21 41 37 49
61 28 82 -19 19 -51 14 -95 -15z"/>
<path d="M11283 4573 c-46 -29 -69 -63 -60 -88 16 -39 70 -30 127 21 41 37 49
61 28 82 -19 19 -51 14 -95 -15z"/>
<path d="M13377 4558 c-23 -24 -67 -71 -97 -106 -53 -60 -57 -63 -120 -73 -81
-13 -110 -24 -110 -43 0 -21 37 -39 71 -34 16 3 29 3 29 1 0 -2 -18 -31 -41
-64 -91 -135 -139 -282 -110 -337 6 -12 26 -29 43 -38 79 -41 207 26 320 169
44 57 48 77 14 77 -17 0 -49 -25 -108 -84 -84 -85 -126 -109 -157 -89 -41 27
1 153 98 298 72 107 67 104 175 125 54 11 110 20 125 20 15 0 36 6 47 14 15
12 17 18 8 33 -10 15 -24 18 -99 15 l-88 -2 36 39 c59 65 71 89 57 106 -21 25
-48 17 -93 -27z"/>
<path d="M7480 4341 c-159 -49 -340 -260 -340 -397 0 -26 8 -44 30 -66 28 -27
36 -30 78 -26 70 7 120 35 193 107 108 109 178 231 179 313 0 63 -61 93 -140
69z m45 -82 c14 -22 -7 -61 -61 -114 -46 -45 -54 -58 -44 -69 15 -19 2 -42
-49 -89 -64 -58 -121 -61 -129 -8 -14 95 242 348 283 280z"/>
<path d="M8367 4261 c-86 -91 -142 -176 -190 -285 -44 -98 -42 -121 9 -121 26
0 33 9 86 115 31 63 88 155 125 204 97 127 101 134 83 146 -30 19 -49 9 -113
-59z"/>
<path d="M8768 4316 c-54 -19 -160 -98 -212 -158 -55 -62 -106 -159 -106 -200
0 -94 108 -145 223 -104 100 36 277 179 277 224 0 40 -38 25 -113 -43 -79 -72
-173 -125 -222 -125 -35 0 -65 26 -65 55 0 80 190 285 265 285 27 0 16 -29
-26 -70 -62 -60 -36 -95 37 -49 40 24 84 94 84 132 0 59 -61 82 -142 53z"/>
<path d="M11067 4251 c-86 -91 -142 -176 -190 -285 -44 -98 -42 -121 9 -121
26 0 33 9 86 115 31 63 88 155 125 204 97 127 101 134 83 146 -30 19 -49 9
-113 -59z"/>
<path d="M11437 4305 c-52 -18 -132 -72 -188 -127 -115 -111 -142 -249 -60
-305 38 -26 158 -24 235 5 119 44 276 161 263 195 -11 28 -39 19 -102 -34
-130 -108 -274 -149 -329 -93 -28 28 -18 42 48 64 130 43 256 153 272 237 6
31 3 39 -16 55 -26 21 -70 23 -123 3z m53 -84 c0 -31 -89 -112 -158 -144 -35
-16 -65 -27 -68 -25 -7 7 66 101 101 130 66 55 125 73 125 39z"/>
<path d="M12182 4280 c-84 -46 -148 -88 -209 -137 -63 -51 -52 -23 22 56 36
37 65 73 65 80 0 18 -46 23 -77 8 -68 -36 -177 -181 -253 -338 -43 -89 -48
-116 -25 -125 33 -13 62 8 120 87 55 76 128 147 217 213 l38 28 -6 -30 c-14
-70 101 -82 220 -23 61 30 106 64 106 80 0 21 -34 18 -92 -8 -78 -35 -109 -43
-127 -32 -22 14 -6 37 61 87 70 51 75 58 58 79 -19 23 -38 18 -118 -25z"/>
<path d="M12627 4305 c-52 -18 -132 -72 -188 -127 -115 -111 -142 -249 -60
-305 38 -26 158 -24 235 5 119 44 276 161 263 195 -11 28 -39 19 -102 -34
-130 -108 -274 -149 -329 -93 -28 28 -18 42 48 64 130 43 256 153 272 237 6
31 3 39 -16 55 -26 21 -70 23 -123 3z m53 -84 c0 -31 -89 -112 -158 -144 -35
-16 -65 -27 -68 -25 -7 7 66 101 101 130 66 55 125 73 125 39z"/>
<path d="M7843 4303 c-16 -11 -130 -187 -164 -254 -37 -73 -45 -111 -29 -149
37 -88 146 -57 280 80 76 78 77 78 118 73 55 -7 121 12 166 49 39 32 44 49 21
68 -13 11 -26 8 -77 -19 -33 -17 -73 -31 -88 -31 l-27 0 34 67 c42 83 41 117
-4 121 -60 6 -123 -77 -123 -162 0 -15 -13 -46 -29 -69 -40 -59 -126 -137
-151 -137 -50 0 -33 54 67 212 60 96 74 151 38 156 -11 1 -25 -1 -32 -5z"/>
<path d="M6289 4262 c-62 -40 -133 -124 -174 -206 -45 -89 -46 -136 -6 -177
51 -51 116 -35 202 48 l46 45 7 -35 c8 -42 38 -82 76 -102 51 -27 110 -15 110
22 0 7 -18 22 -40 33 -50 25 -75 73 -66 122 3 19 29 70 56 113 59 93 66 111
50 130 -33 40 -82 3 -140 -107 -99 -185 -276 -302 -215 -142 17 46 107 165
164 218 34 33 39 51 15 60 -27 10 -38 7 -85 -22z"/>
<path d="M8545 3376 c-65 -19 -105 -62 -105 -116 0 -91 50 -131 172 -138 91
-5 155 14 188 55 22 28 28 110 10 144 -28 52 -170 81 -265 55z m135 -17 c79
-18 113 -73 90 -143 -14 -44 -49 -66 -114 -73 -101 -10 -166 32 -166 109 0 64
24 92 95 109 42 10 45 10 95 -2z"/>
<path d="M9580 3381 c-81 -17 -120 -60 -120 -133 0 -41 5 -54 28 -78 73 -73
282 -66 336 11 9 14 16 43 16 70 0 52 -23 90 -70 114 -33 17 -142 27 -190 16z
m162 -37 c36 -19 48 -43 48 -97 0 -48 -22 -77 -73 -96 -61 -23 -141 -9 -184
31 -25 24 -32 93 -13 128 29 54 147 72 222 34z"/>
<path d="M10120 3381 c-80 -17 -120 -59 -120 -126 0 -89 53 -128 185 -133 56
-2 107 2 135 10 l45 14 3 52 3 52 -90 0 c-54 0 -91 -4 -91 -10 0 -6 28 -10 65
-10 l65 0 0 -34 c0 -29 -4 -36 -31 -45 -73 -25 -185 -7 -219 36 -22 28 -27 91
-10 124 12 22 52 44 98 52 44 9 126 -10 148 -34 9 -10 28 -19 41 -19 21 0 22
2 13 21 -7 11 -26 27 -44 34 -41 18 -149 26 -196 16z"/>
<path d="M7410 3250 l0 -130 25 0 c24 0 25 3 25 55 l0 55 103 0 c131 0 170 16
175 73 3 35 1 38 -40 57 -35 16 -66 20 -165 20 l-123 0 0 -130z m239 99 c46
-16 59 -46 32 -73 -19 -18 -36 -21 -121 -24 l-100 -4 0 56 0 56 79 0 c43 0 92
-5 110 -11z"/>
<path d="M7900 3250 l0 -130 25 0 c23 0 24 4 27 63 l3 62 133 3 132 3 0 -66
c0 -63 1 -65 25 -65 l25 0 0 130 0 130 -25 0 c-24 0 -25 -3 -25 -55 l0 -55
-135 0 -135 0 0 55 c0 52 -1 55 -25 55 l-25 0 0 -130z"/>
<path d="M8950 3370 c0 -6 35 -10 85 -10 l85 0 0 -120 c0 -113 1 -120 20 -120
19 0 20 7 20 120 l0 120 85 0 c50 0 85 4 85 10 0 6 -70 10 -190 10 -120 0
-190 -4 -190 -10z"/>
<path d="M10550 3251 l0 -131 25 0 c24 0 25 3 25 55 l0 55 68 0 68 0 54 -55
c43 -43 61 -55 85 -55 l30 1 -57 54 c-32 30 -58 57 -58 60 0 3 8 5 19 5 10 0
30 10 45 21 34 27 32 64 -7 93 -25 18 -45 21 -163 24 l-134 4 0 -131z m238 98
c54 -19 54 -70 0 -88 -17 -6 -66 -11 -109 -11 l-79 0 0 55 0 55 79 0 c43 0 92
-5 109 -11z"/>
<path d="M11107 3263 c-108 -153 -103 -143 -73 -143 18 0 32 10 48 35 l23 35
110 0 110 0 23 -35 c16 -25 30 -35 48 -35 30 0 35 -10 -73 143 -68 94 -88 117
-108 117 -20 0 -40 -23 -108 -117z m153 18 c22 -33 40 -62 40 -65 0 -4 -38 -6
-85 -6 -47 0 -85 2 -85 6 0 7 80 124 85 124 2 0 22 -27 45 -59z"/>
<path d="M11560 3250 l0 -130 25 0 c24 0 25 3 25 55 l0 55 103 0 c131 0 170
16 175 73 3 35 1 38 -40 57 -35 16 -66 20 -165 20 l-123 0 0 -130z m239 99
c46 -16 59 -46 32 -73 -19 -18 -36 -21 -121 -24 l-100 -4 0 56 0 56 79 0 c43
0 92 -5 110 -11z"/>
<path d="M12050 3250 l0 -130 25 0 c23 0 24 4 27 63 l3 62 133 3 132 3 0 -66
c0 -63 1 -65 25 -65 l25 0 0 130 0 130 -25 0 c-24 0 -25 -3 -25 -55 l0 -55
-135 0 -135 0 0 55 c0 52 -1 55 -25 55 l-25 0 0 -130z"/>
<path d="M12620 3250 l0 -130 25 0 25 0 0 130 0 130 -25 0 -25 0 0 -130z"/>
<path d="M12870 3250 l0 -130 150 0 c186 0 205 18 23 22 l-128 3 0 50 0 50
113 3 c149 4 147 22 -3 22 l-115 0 0 45 0 45 130 0 c80 0 130 4 130 10 0 6
-57 10 -150 10 l-150 0 0 -130z"/>
<path d="M10005 2998 c-5 -22 -127 -952 -140 -1068 -9 -82 23 -130 78 -116 36
9 54 47 115 246 80 258 269 891 276 928 l8 32 -46 0 -45 0 -50 -157 c-27 -87
-73 -234 -103 -326 -29 -93 -54 -164 -56 -158 -2 6 10 136 27 288 17 153 33
295 35 316 l4 37 -49 0 c-42 0 -49 -3 -54 -22z"/>
</g>
</svg>
